# xmcd CD database file
#
# Track frame offsets:
#	150
#	15208
#	27352
#	47644
#	63660
#	78599
#	103184
#	118612
#	136198
#	157843
#
# Disc length: 2421 seconds
#
# Revision: 0
# Processed by: cddbd v1.5.2PL0 Copyright (c) Steve Scherf et al.
# Submitted via: CDex 1.70beta3
#
DISCID=7609730a
DTITLE=ハッチェル特急楽団 - 特急新聞2号
DYEAR=2006
DGENRE=Jazz
TTITLE0=こりゃたまらんヨ
TTITLE1=タイガーカステラ
TTITLE2=洒落ートリンド
TTITLE3=屋根の上の与作
TTITLE4=異邦社員
TTITLE5=月光のすべて
TTITLE6=ニンニキフラガール
TTITLE7=カンカンおやじ
TTITLE8=飛ぶオレ (Live In マドリッド)
TTITLE9=アイガットキャラバン
EXTD=YEAR: 2006
EXTT0=
EXTT1=
EXTT2=
EXTT3=
EXTT4=
EXTT5=
EXTT6=
EXTT7=
EXTT8=
EXTT9=
PLAYORDER=
